<svg width="512" height="512" viewBox="0 0 512 512" fill="none" xmlns="http://www.w3.org/2000/svg">
<rect width="512" height="512" fill="black"/>
<rect x="412" y="224.451" width="24.9238" height="8.11456" rx="4.05728" transform="rotate(-15 412 224.451)" fill="white"/>
<path d="M157.886 190.593C157.574 186.445 163.015 184.636 165.249 188.146L211.681 261.111C212.559 262.491 214.19 263.197 215.797 262.894L401.186 227.923C405.936 227.027 407.905 233.759 403.421 235.564L227.534 306.37C226.019 306.98 225.027 308.449 225.027 310.081L225.027 397.439C225.027 401.58 219.506 402.992 217.518 399.359L178.405 327.88C177.677 326.548 176.256 325.743 174.739 325.803L86.2019 329.28C82.0967 329.441 80.4451 324.05 83.936 321.884L161.959 273.472C163.226 272.686 163.951 271.26 163.839 269.773L157.886 190.593Z" fill="white"/>
<rect x="401.33" y="152.586" width="16.8462" height="6.93668" rx="3.46834" transform="rotate(-15 401.33 152.586)" fill="white"/>
<path d="M241.106 131.888C240.794 127.74 246.236 125.931 248.469 129.441L276.608 173.659C277.486 175.039 279.117 175.746 280.724 175.442L392.228 154.408C396.978 153.512 398.947 160.245 394.463 162.05L288.606 204.664C287.092 205.274 286.1 206.742 286.1 208.375L286.1 261.475C286.1 265.616 280.579 267.028 278.591 263.395L254.974 220.234C254.245 218.902 252.825 218.098 251.308 218.157L197.175 220.283C193.07 220.444 191.418 215.053 194.909 212.887L242.804 183.169C244.071 182.383 244.795 180.958 244.683 179.471L241.106 131.888Z" fill="white"/>
</svg>
